<svg width="40" height="40" viewBox="0 0 40 40" fill="none" xmlns="http://www.w3.org/2000/svg">
<path d="M22.5312 29.5312L30.8516 21.1719C31.1901 20.8594 31.3594 20.4818 31.3594 20.0391C31.3594 19.5703 31.1901 19.1667 30.8516 18.8281L22.5312 10.5078C22.1927 10.1693 21.7891 10 21.3203 10C20.8776 10 20.5 10.1693 20.1875 10.5078C19.849 10.8203 19.6797 11.2109 19.6797 11.6797C19.6797 12.1484 19.849 12.5391 20.1875 12.8516L27.3359 20L20.1875 27.1875C19.849 27.5 19.6797 27.8906 19.6797 28.3594C19.6797 28.8021 19.849 29.1927 20.1875 29.5312C20.5 29.8438 20.8776 30 21.3203 30C21.7891 30 22.1927 29.8438 22.5312 29.5312ZM10.8516 29.5312L19.1719 21.1719C19.5104 20.8594 19.6797 20.4818 19.6797 20.0391C19.6797 19.5703 19.5104 19.1667 19.1719 18.8281L10.8516 10.5078C10.5391 10.1693 10.1484 10 9.67969 10C9.21094 10 8.82031 10.1693 8.50781 10.5078C8.16927 10.8203 8 11.2109 8 11.6797C8 12.1484 8.16927 12.5391 8.50781 12.8516L15.6562 20L8.50781 27.1875C8.16927 27.5 8 27.8906 8 28.3594C8 28.8021 8.16927 29.1927 8.50781 29.5312C8.82031 29.8438 9.21094 30 9.67969 30C10.1484 30 10.5391 29.8438 10.8516 29.5312Z" fill="#3C3C3B"/>
</svg>
