<svg width="40" height="40" viewBox="0 0 40 40" fill="none" xmlns="http://www.w3.org/2000/svg">
<path d="M13 3H8C7.32292 3 6.67188 3.13021 6.04688 3.39062C5.44792 3.65104 4.92708 4.0026 4.48438 4.44531C4.04167 4.91406 3.67708 5.44792 3.39062 6.04688C3.13021 6.64583 3 7.29688 3 8V13C3 13.4427 3.15625 13.8333 3.46875 14.1719C3.80729 14.4844 4.21094 14.6406 4.67969 14.6406C5.14844 14.6406 5.53906 14.4844 5.85156 14.1719C6.1901 13.8333 6.35938 13.4427 6.35938 13V8C6.35938 7.76562 6.39844 7.54427 6.47656 7.33594C6.55469 7.1276 6.67188 6.95833 6.82812 6.82812C6.98438 6.67188 7.16667 6.55469 7.375 6.47656C7.58333 6.3724 7.79167 6.32031 8 6.32031H13C13.4688 6.32031 13.8594 6.16406 14.1719 5.85156C14.5104 5.51302 14.6797 5.10938 14.6797 4.64062C14.6797 4.19792 14.5104 3.82031 14.1719 3.50781C13.8594 3.16927 13.4688 3 13 3ZM36.3594 13V8C36.3594 7.29688 36.2292 6.64583 35.9688 6.04688C35.7083 5.42188 35.3438 4.88802 34.875 4.44531C34.4323 4.0026 33.8984 3.65104 33.2734 3.39062C32.6745 3.13021 32.0365 3 31.3594 3H26.3594C25.8906 3 25.487 3.16927 25.1484 3.50781C24.8359 3.82031 24.6797 4.19792 24.6797 4.64062C24.6797 5.10938 24.8359 5.51302 25.1484 5.85156C25.487 6.16406 25.8906 6.32031 26.3594 6.32031H31.3594C31.5677 6.32031 31.776 6.3724 31.9844 6.47656C32.1927 6.55469 32.375 6.67188 32.5312 6.82812C32.6875 6.95833 32.8047 7.1276 32.8828 7.33594C32.9609 7.54427 33 7.76562 33 8V13C33 13.4427 33.1562 13.8333 33.4688 14.1719C33.8073 14.4844 34.2109 14.6406 34.6797 14.6406C35.1484 14.6406 35.5391 14.4844 35.8516 14.1719C36.1901 13.8333 36.3594 13.4427 36.3594 13ZM26.3594 36.3203H31.3594C32.0365 36.3203 32.6745 36.1901 33.2734 35.9297C33.8984 35.6693 34.4323 35.3047 34.875 34.8359C35.3177 34.3932 35.6693 33.8724 35.9297 33.2734C36.2161 32.6484 36.3594 31.9974 36.3594 31.3203V26.3203C36.3594 25.8516 36.1901 25.4609 35.8516 25.1484C35.5391 24.8099 35.1484 24.6406 34.6797 24.6406C34.2109 24.6406 33.8073 24.8099 33.4688 25.1484C33.1562 25.4609 33 25.8516 33 26.3203V31.3203C33 31.5547 32.9609 31.776 32.8828 31.9844C32.8047 32.1667 32.6875 32.3359 32.5312 32.4922C32.375 32.6484 32.1927 32.7786 31.9844 32.8828C31.776 32.9609 31.5677 33 31.3594 33H26.3594C25.8906 33 25.487 33.1693 25.1484 33.5078C24.8359 33.8203 24.6797 34.1979 24.6797 34.6406C24.6797 35.1094 24.8359 35.513 25.1484 35.8516C25.487 36.1641 25.8906 36.3203 26.3594 36.3203ZM3 26.3203V31.3203C3 31.9974 3.13021 32.6484 3.39062 33.2734C3.65104 33.8724 4.01562 34.3932 4.48438 34.8359C4.92708 35.3047 5.44792 35.6693 6.04688 35.9297C6.67188 36.1901 7.32292 36.3203 8 36.3203H13C13.4688 36.3203 13.8594 36.1641 14.1719 35.8516C14.5104 35.513 14.6797 35.1094 14.6797 34.6406C14.6797 34.1979 14.5104 33.8203 14.1719 33.5078C13.8594 33.1693 13.4688 33 13 33H8C7.79167 33 7.58333 32.9609 7.375 32.8828C7.16667 32.7786 6.98438 32.6484 6.82812 32.4922C6.67188 32.3359 6.55469 32.1667 6.47656 31.9844C6.39844 31.776 6.35938 31.5547 6.35938 31.3203V26.3203C6.35938 25.8516 6.1901 25.4609 5.85156 25.1484C5.53906 24.8099 5.14844 24.6406 4.67969 24.6406C4.21094 24.6406 3.80729 24.8099 3.46875 25.1484C3.15625 25.4609 3 25.8516 3 26.3203Z" fill="#3C3C3B"/>
</svg>
